<svg width="1024" height="1024" viewBox="0 0 1024 1024" xmlns="http://www.w3.org/2000/svg" preserveAspectRatio="xMidYMid meet"><rect x="0" y="0" width="1024" height="1024" fill="#3a3e41"></rect><svg x="476" y="433" width="321" height="164" xmlns="http://www.w3.org/2000/svg" preserveAspectRatio="none"><svg version="1.1" xmlns="http://www.w3.org/2000/svg" style="display: block;" width="321" height="164" viewBox="-33.80 1.61 2095.76 1070.73" preserveAspectRatio="none"><g id="svg-group-c62467f1-2f13-4732-ae88-11d528e593cd">
<path transform="translate(0,0)" fill="rgb(254,254,254)" d="M 1602.64 3.26905 C 1628.16 1.60966 1635.64 3.32124 1660.28 8.41987 C 1661.44 18.2216 1661.1 35.2362 1661.1 45.41 C 1660.49 67.7306 1661.75 88.5143 1660.49 110.986 C 1655.3 203.555 1659.36 297.868 1658.14 390.515 C 1657.95 405.121 1659.42 466.173 1656.74 472.632 C 1648.06 480.256 1598.23 481.313 1588.52 474.683 C 1581.28 464.525 1589.15 447.582 1580.45 441.073 C 1577.43 442.402 1571.16 448.538 1568.41 450.961 C 1550.86 466.405 1542.7 473.345 1519.89 478.594 C 1470.06 490.06 1435.2 489 1391.58 463.06 C 1379.29 455.211 1367.08 445.869 1357.25 435.006 C 1293.99 365.101 1298.15 223.206 1367.88 158.951 C 1424.99 106.326 1524.6 103.595 1579.2 162.616 L 1579.43 161.735 C 1585.77 136.898 1577.28 21.9106 1584.2 12.1623 C 1587.72 7.19801 1597.01 4.635 1602.64 3.26905 z M 1498.01 410.35 C 1529.7 401.244 1548.1 391.335 1564.83 361.478 C 1578.87 336.399 1578.59 314.439 1577.07 286.585 C 1575.14 251.119 1559.01 222.393 1527.54 205.046 C 1509.48 195.085 1494.44 194.183 1474.1 195.401 C 1450.29 197.788 1434.83 204.282 1419.23 223.172 C 1382.86 267.21 1384.89 355.479 1431.22 392.455 C 1449.2 406.68 1472.06 413.252 1494.85 410.746 C 1495.9 410.626 1496.95 410.494 1498.01 410.35 z"/>
<path transform="translate(0,0)" fill="rgb(254,254,254)" d="M 479.628 675.262 C 488.962 674.031 500.199 674.94 509.442 674.531 C 588.432 671.035 660.877 723.11 675.651 802.214 C 680.156 826.333 684.217 865.175 670.044 887.121 C 656.927 888.756 642.727 887.378 629.515 888.359 C 570.65 892.733 511.417 890.276 452.428 891.002 C 439.456 891.162 426.526 890.308 413.742 892.932 C 409.774 897.678 411.474 905.328 414.012 910.431 C 434.94 952.509 469.416 978.122 517.588 975.42 C 554.02 973.377 571.272 959.361 594.854 933.509 C 601.762 933.124 610.207 933.388 617.25 933.442 C 622.798 933.632 668.104 931.091 666.596 938.406 C 645.536 1040.58 509.143 1072.34 424.738 1026.55 C 374.496 999.295 340.571 960.057 332.477 900.138 C 317.507 789.323 359.56 694.331 479.628 675.262 z M 430.272 821.477 C 437.473 825.887 581.242 818.368 603.309 822.131 C 590.172 790.992 587.086 773.655 552.947 754.806 C 535.01 744.903 491.291 745.303 472.206 751.191 C 448.472 758.513 431.398 778.65 420.463 800.506 C 427.353 806.255 422.421 813.114 424.621 821.19 L 430.272 821.477 z"/>
<path transform="translate(0,0)" fill="rgb(0,0,0)" fill-opacity="0.988235" d="M 420.463 800.506 C 431.398 778.65 448.472 758.513 472.206 751.191 C 491.291 745.303 535.01 744.903 552.947 754.806 C 587.086 773.655 590.172 790.992 603.309 822.131 C 581.242 818.368 437.473 825.887 430.272 821.477 C 483.895 820.808 538.07 821.97 591.623 820.923 C 591.262 803.612 588.308 791.458 575.959 778.313 C 568.791 770.683 549.768 758.207 541.139 752.764 C 532.688 747.434 508.392 753.346 499.288 753.628 C 493.613 753.804 487.015 751.649 481.271 751.379 C 472.828 750.529 456.491 766.014 449.683 771.505 C 443.857 776.205 428.387 793.333 426.062 800.565 C 425.108 803.533 424.744 817.153 424.621 821.19 C 422.421 813.114 427.353 806.255 420.463 800.506 z"/>
<path transform="translate(0,0)" fill="rgb(35,39,42)" d="M 420.463 800.506 C 427.353 806.255 422.421 813.114 424.621 821.19 L 430.272 821.477 C 437.473 825.887 581.242 818.368 603.309 822.131 C 596.29 823.469 580.048 823.011 572.276 823.034 L 517.25 823.216 L 450.703 823.543 C 438.997 823.628 422.974 824.357 411.815 823.35 C 414.602 815.152 417.132 808.502 420.463 800.506 z"/>
<path transform="translate(0,0)" fill="rgb(254,254,254)" d="M 1108.99 116.401 C 1125.95 115.41 1155.36 121.048 1172.21 124.902 C 1249.98 142.687 1294.18 231.544 1284.6 306.728 C 1283.51 315.317 1283.41 322.923 1281.21 331.519 C 1250.79 332.478 1218.42 331.119 1188.45 332.095 C 1165.71 332.836 1143.77 334.165 1121.25 334.236 C 1101.09 334.299 1040.66 332.602 1023.21 336.069 C 1020.47 340.206 1021.45 344.276 1023.07 348.796 C 1035.05 382.318 1064 412.598 1100.95 415.816 C 1126.95 418.08 1158.12 416.097 1178.98 398.461 C 1188.89 389.911 1197.24 379.156 1207.6 370.572 C 1219.01 371.244 1235.6 373.996 1248.25 375.107 L 1278.6 377.94 C 1275.57 395.009 1270.36 406.015 1260.72 420.517 C 1208.96 498.427 1073.78 504.799 1003.97 449.348 C 968.825 421.124 946.307 380.109 941.36 335.303 C 937.075 297.244 940.053 245.697 956.442 211.264 C 986.373 148.384 1044.43 123.69 1108.99 116.401 z M 1021.8 267.013 C 1057.47 267.89 1094.15 267.269 1129.94 267.511 C 1154.01 267.574 1188.27 268.709 1211.53 267.388 C 1197 236.135 1188.12 210.009 1152.44 195.548 C 1139.81 190.429 1116.08 191.033 1102.39 191.405 C 1055.27 194.489 1032.49 223.404 1021.8 267.013 z"/>
<path transform="translate(0,0)" fill="rgb(0,0,0)" d="M 1102.39 191.405 C 1116.08 191.033 1139.81 190.429 1152.44 195.548 C 1188.12 210.009 1197 236.135 1211.53 267.388 C 1188.27 268.709 1154.01 267.574 1129.94 267.511 C 1094.15 267.269 1057.47 267.89 1021.8 267.013 C 1032.49 223.404 1055.27 194.489 1102.39 191.405 z M 1062.91 204.776 C 1047.49 217.492 1035.67 227.607 1029.91 247.605 C 1028.46 252.62 1024.85 259.66 1026.92 264.556 C 1034.63 265.93 1057.22 265.409 1066.11 265.41 L 1142.5 265.397 C 1159.85 265.425 1181.25 266.016 1198.28 265.034 C 1198.32 261.654 1198.41 255.298 1197.83 252.368 C 1192.48 225.36 1155.57 194.893 1127.63 197.938 C 1115.11 199.304 1091.33 195.183 1081.23 196.42 C 1078.21 206.54 1072.47 204.524 1062.91 204.776 z"/>
<path transform="translate(0,0)" fill="rgb(254,254,254)" d="M 516.776 119.402 C 613.477 112.731 681.958 160.93 702.123 257.72 C 705.637 274.586 709.205 315.79 702.194 331.469 C 680.52 332.415 657.349 330.724 636.013 332.125 C 576.738 336.016 517.71 333.702 458.377 334.36 C 453.052 334.419 437.62 333.812 438.196 342.175 C 439.118 355.55 448.919 371.006 457.396 381.126 C 473.892 401.036 497.695 413.486 523.458 415.681 C 556.483 418.515 588.658 411.656 611.891 387.089 C 617.096 381.585 622.903 375.714 628.678 370.862 C 637.494 371.039 646.306 371.393 655.108 371.925 C 692.751 376.079 709.393 365.298 681.628 417.608 C 679.758 421.132 676.133 425.686 673.57 428.65 C 645.851 460.687 606.789 480.957 564.556 484.794 C 557.239 485.459 549.18 484.809 542.275 485.38 C 450.608 492.956 363.896 425.613 359.148 331.589 C 358.058 309.996 356.426 282.215 360.248 259.767 C 374.002 178.984 436.44 126.357 516.776 119.402 z M 496.521 203.054 C 494.671 203.607 486.396 206.077 484.939 207.257 C 474.283 215.883 459.798 227.969 451.872 239.058 C 451.208 239.987 447.497 249.682 447.011 250.95 C 450.201 257.85 450.149 258.125 451.397 265.284 C 504.606 265.744 562.811 266.43 615.782 265.135 C 617.322 261.769 618.72 258.461 620.699 255.332 C 618.591 249.75 614.779 240.421 613.321 234.986 C 610.494 229.484 606.81 224.466 602.408 220.121 C 595.775 216.492 586.817 205.909 579.682 202.22 C 561.425 192.783 521.82 192.725 501.709 196.202 L 496.521 203.054 z"/>
<path transform="translate(0,0)" fill="rgb(0,0,0)" d="M 440.005 267.47 C 442.558 259.717 444.293 252.184 447.303 244.402 C 455.442 223.763 471.414 207.181 491.733 198.274 C 514.722 188.167 558.424 187.905 580.879 201.235 C 586.217 204.404 600.049 214.694 602.408 220.121 C 595.775 216.492 586.817 205.909 579.682 202.22 C 561.425 192.783 521.82 192.725 501.709 196.202 L 496.521 203.054 C 494.671 203.607 486.396 206.077 484.939 207.257 C 474.283 215.883 459.798 227.969 451.872 239.058 C 451.208 239.987 447.497 249.682 447.011 250.95 C 450.201 257.85 450.149 258.125 451.397 265.284 C 504.606 265.744 562.811 266.43 615.782 265.135 C 617.322 261.769 618.72 258.461 620.699 255.332 C 618.591 249.75 614.779 240.421 613.321 234.986 C 618.117 241.53 623.904 257.721 630.187 267.516 C 621.684 267.971 612.301 267.933 603.772 267.796 C 549.324 266.92 494.388 268.606 440.005 267.47 z"/>
<path transform="translate(0,0)" fill="rgb(254,254,254)" d="M 11.7797 65.2098 C 29.9496 63.9781 49.785 64.7768 68.0191 65.0029 C 78.6795 65.6382 83.0056 68.4142 88.4484 77.1227 C 141.041 161.271 191.796 246.445 241.539 332.248 C 242.7 334.251 244.082 334.348 245.998 334.48 C 251.584 327.749 249.653 251.776 249.668 236.19 C 249.382 180.072 249.407 123.952 249.745 67.8333 L 325.168 67.6677 C 324.663 96.8405 325.222 127.769 325.189 157.146 L 325.043 357.611 C 325.024 381.475 325.048 405.315 324.829 429.19 C 324.715 441.626 322.375 454.795 324.002 466.781 C 324.439 469.998 325.225 474.12 323.511 476.976 C 321.09 478.851 319.149 478.634 316.127 478.772 C 294.228 478.894 271.709 479.284 249.863 478.771 C 243.914 471.318 234.762 452.585 229.796 443.394 C 221.587 428.516 213.241 413.715 204.758 398.993 C 188.377 370.28 172.633 342.703 154.41 315.064 C 145.384 301.374 136.652 282.786 128.15 268.136 C 114.91 245.699 100.974 223.68 86.3615 202.111 C 87.1353 224.594 85.779 255.677 85.782 279.238 L 85.9225 478.92 C 61.0732 478.507 35.0511 478.91 10.1078 478.92 L 9.84341 321.108 C 9.72874 304.546 8.04252 288.787 7.78938 272.456 C 6.91455 219.137 7.5043 165.804 9.55795 112.517 C 9.88139 103.845 8.6943 69.9082 11.7797 65.2098 z"/>
<path transform="translate(0,0)" fill="rgb(254,254,254)" d="M 126.386 675.336 C 126.74 675.299 127.095 675.262 127.449 675.225 C 191.525 672.752 276.529 682.676 292.788 758.091 C 293.8 762.783 299.598 773.21 294.519 776.996 C 283.486 785.222 266.246 780.469 253.51 780.192 C 245.488 779.801 237.179 779.246 228.669 779.168 C 221.967 772.352 214.996 764.878 208.155 758.272 C 191.796 742.802 164.327 740.436 143.18 741.093 C 122.263 741.742 85.1129 754.065 88.4878 780.208 C 92.4641 811.011 151.164 817.365 174.911 821.798 C 189.112 824.338 203.222 827.359 217.218 830.856 C 264.774 842.925 303.749 865.167 309.635 919.332 C 312.321 946.369 304.432 977.681 286.876 998.569 C 261.435 1028.84 207.883 1044.12 169.323 1047.08 C 114.099 1049.13 32.7942 1024.24 8.13569 969.984 C -19.8507 908.402 43.6029 940.151 74.5918 926.899 C 76.8981 931.557 79.1786 936.235 81.8562 940.611 C 102.231 973.912 141.227 977.797 176.778 974.946 C 192.821 973.66 209.095 971.289 219.934 957.581 C 224.672 951.589 230.806 943.689 230.417 935.266 C 225.332 901.96 169.842 899.109 144.874 894.321 C 105.298 886.732 72.1989 882.035 39.7143 856.921 C 18.7783 840.735 14.0528 818.484 11.4647 793.632 C 4.19735 719.43 58.7398 682.417 126.386 675.336 z"/>
<path transform="translate(0,0)" fill="rgb(254,254,254)" d="M 935.879 681.362 C 958.356 680.701 982.01 681.07 1004.57 681.091 C 1007.42 690.924 1013.41 701.176 1016.4 710.882 C 1022.86 731.827 1031.83 752.008 1038.97 772.532 C 1049.3 802.329 1059.34 832.228 1069.08 862.224 C 1079.28 892.691 1083.89 910.495 1099.21 939.069 C 1105.65 925.868 1107.3 916.259 1112.27 903.085 L 1166.4 761.749 C 1175.39 737.927 1184.12 713.204 1193.42 689.454 C 1194.59 686.469 1197.35 683.644 1199.67 681.439 C 1227.79 680.501 1244.14 681.796 1271.97 684.646 C 1266.02 710.103 1255.13 735.271 1245.59 759.743 C 1228.33 799.024 1215.67 839.677 1199.18 878.941 C 1177.66 930.17 1162.96 984.455 1137.83 1033.87 C 1114.07 1034.18 1089.49 1034.14 1065.7 1032.91 C 1063.29 1032.41 1059.95 1032.54 1058.53 1030.17 C 1053.55 1021.83 1050.46 1012.08 1046.89 1003.05 L 1019.67 932.394 L 960.264 778.87 C 951.656 756.546 926.881 707.29 930.624 684.845 C 932.887 681.764 931.915 682.697 935.879 681.362 z"/>
<path transform="translate(0,0)" fill="rgb(254,254,254)" d="M 899.956 120.348 C 913.293 118.424 924.748 120.731 937.942 122.67 C 939.327 136.793 937.21 153.222 936.448 167.529 C 935.91 177.623 935.847 187.251 935.796 197.358 C 927.095 197.364 918.398 197.32 909.772 197.748 C 864.837 199.981 826.231 229.956 821.918 276.349 C 819.788 299.267 820.985 321.885 820.636 344.96 C 819.968 389.161 821.655 433.924 820.131 478.097 C 811.012 478.779 748.798 480.175 745.193 477.431 L 745.104 474.241 C 740.743 423.429 742.575 372.15 742.263 321.124 C 741.863 255.626 741.15 190.815 745.116 125.469 C 764.973 124.867 794.239 124.705 813.831 125.711 C 822.898 140.175 820.053 151.387 822.671 169.141 C 841.026 141.424 868.029 126.794 899.956 120.348 z"/>
<path transform="translate(0,0)" fill="rgb(254,254,254)" d="M 879.027 679.359 C 884.656 678.428 906.926 677.636 911.286 683.341 C 913.394 686.099 913.478 696.664 913.325 700.648 C 912.745 715.752 914.536 731.9 910.648 746.645 C 884.019 747.262 868.334 747.89 844.283 761.282 C 792.045 790.368 795.098 850.281 795.082 901.941 L 795.051 986.394 C 795.052 992.756 796.877 1030.25 792.039 1030.37 C 781.572 1030.62 726.733 1034.28 720.243 1031.47 C 714.873 987.071 716.81 936.872 716.824 891.548 L 716.687 684.125 C 729.697 684.032 780.333 682.526 789.169 685.797 C 796.168 692.021 796.018 709.738 796.691 719.245 C 823.045 694.849 844.085 683.117 879.027 679.359 z"/>
<path transform="translate(0,0)" fill="rgb(254,254,254)" d="M 1333.15 681.476 C 1349.1 681.376 1364.07 682.871 1379.89 684.267 C 1382.92 710.51 1383.33 732.968 1382.47 759.38 C 1382.68 770.388 1379.97 783.41 1380.69 794.241 C 1383.96 843.882 1382.74 893.626 1383.15 943.363 C 1383.4 973.166 1384.64 1001.91 1379.43 1031.35 L 1356.5 1031.42 C 1339.04 1031.55 1321.59 1031.48 1304.13 1031.22 L 1303.92 810.994 C 1303.9 771.823 1303.66 732.186 1304.17 692.995 C 1304.19 690.978 1304.5 687.739 1305.91 686.269 C 1311.14 680.853 1325.73 681.639 1333.15 681.476 z"/>
<path transform="translate(0,0)" fill="rgb(254,254,254)" d="M 1304.19 549.964 C 1330.33 549.885 1359.01 549.313 1384.94 550.234 C 1385.99 560.769 1387.42 614.749 1384.8 623.168 C 1371.69 626.883 1319.86 626.096 1305.15 623.556 C 1303.03 603.157 1304.06 571.203 1304.19 549.964 z"/>
<path transform="translate(0,0)" fill="rgb(254,254,254)" d="M 2035.11 387.284 C 2021.83 431.856 1979.92 466.481 1936.05 478.258 C 1838.29 504.501 1733.3 468.788 1707.01 362.328 C 1682.46 262.908 1717.84 155.487 1823.24 124.171 C 1869.04 110.63 1918.94 113.874 1961.64 135.958 C 2013.15 163.459 2033.72 209.464 2048 263.432 L 2048 323.73 C 2045.81 326.148 2043.24 328.683 2040.95 331.042 C 2026.61 332.934 2010.06 331.295 1995.51 332.29 C 1940.43 336.054 1885.03 333.778 1829.85 334.239 C 1815.31 334.361 1801.32 333.846 1786.78 335.393 C 1781.23 340.527 1783.09 349.13 1785.35 355.116 C 1805.53 408.571 1864.98 430.665 1917.14 410.764 C 1942.91 400.93 1948.89 387.696 1967.9 370.393 C 1979.55 375.013 2016.72 376.986 2030.99 378.396 C 2032.39 381.197 2033.79 384.407 2035.11 387.284 z M 1782.56 266.943 C 1817.31 267.87 1853.64 267.413 1888.5 267.45 C 1913.8 267.547 1946.27 268.591 1971 267.458 C 1966.65 258.063 1963.45 248.415 1959.04 239.154 C 1941.83 203 1906.93 183.811 1867.32 188.3 C 1839.36 192.454 1819.36 200.59 1801.72 223.657 C 1789.67 239.412 1789.26 250.941 1782.56 266.943 z"/>
<path transform="translate(0,0)" fill="rgb(0,0,0)" d="M 1867.32 188.3 C 1906.93 183.811 1941.83 203 1959.04 239.154 C 1963.45 248.415 1966.65 258.063 1971 267.458 C 1946.27 268.591 1913.8 267.547 1888.5 267.45 C 1853.64 267.413 1817.31 267.87 1782.56 266.943 C 1789.26 250.941 1789.67 239.412 1801.72 223.657 C 1819.36 200.59 1839.36 192.454 1867.32 188.3 z M 1834.95 203.496 L 1822.61 205.009 C 1809.59 217.025 1799.73 222.762 1798.23 240.272 C 1787.81 248.354 1789.28 252.675 1789.5 265.133 C 1819.58 265.48 1849.67 265.561 1879.75 265.377 C 1905.2 265.395 1932.88 265.9 1958.13 265.122 C 1962.7 245.588 1960.25 250.92 1951.99 232.516 C 1938.14 201.665 1900.75 187.213 1868.96 189.341 C 1855.77 193.234 1841.58 193.856 1834.95 203.496 z"/>
<path transform="translate(0,0)" fill="rgb(254,254,254)" d="M 1645.56 925.002 C 1631.39 907.788 1614.51 904.355 1593.6 900.21 C 1515.77 884.783 1416.43 877.146 1429.08 771.236 C 1439.1 687.352 1528.36 668.532 1598.62 675.88 C 1660.19 682.321 1715.57 710.525 1715.4 779.135 C 1692.27 779.203 1664.29 780.005 1641.55 779.159 C 1635.06 764.49 1623.06 752.96 1608.15 747.056 C 1579.3 735.965 1522.74 736.427 1506.6 770.761 C 1505.76 772.547 1504.7 777.173 1504.18 779.194 C 1511.42 794.19 1521.81 803.533 1537.53 808.346 C 1597.31 826.641 1686.57 823.09 1718.53 888.095 C 1742.96 937.79 1714.13 1007.05 1664.06 1028.03 C 1642.76 1036.95 1610.53 1045.9 1587.85 1048 L 1568.54 1048 C 1502.68 1036.04 1422.37 1014.78 1421.83 933.574 C 1429.78 930.973 1485.41 926.945 1494.64 927.026 C 1506.61 948.236 1516.49 964.576 1542.84 971.397 C 1573.41 979.314 1633.01 983.516 1645.64 944.428 C 1647.27 939.376 1646.27 930.387 1645.56 925.002 z"/>
</g></svg></svg><svg x="230" y="395" width="207" height="233" xmlns="http://www.w3.org/2000/svg" preserveAspectRatio="none"><svg version="1.1" xmlns="http://www.w3.org/2000/svg" style="display: block;" width="207" height="233" viewBox="-0.84 0.39 1655.65 1863.61" preserveAspectRatio="none"><g id="svg-group-c099f23d-362b-464f-b13d-5432ad19b4d7">
<path transform="translate(0,0)" fill="rgba(254, 254, 254, 1)" d="M 286.511 400.948 C 302.458 384.61 315.68 355.613 328.534 335.837 C 342.269 314.704 358.076 294.956 373.677 275.178 C 438.365 193.171 530.739 118.338 625.311 74.0266 C 665.948 54.9863 707.666 41.292 750.766 29.0938 C 778.096 21.3588 804.901 15.5507 832.811 10.3653 C 844.259 8.23848 855.868 5.59999 867.438 4.31735 C 900.774 0.621609 936.551 0.390082 969.886 3.63552 C 981.589 4.77488 993.189 7.00892 1004.85 8.51876 C 1097.76 20.5459 1182.6 44.1995 1265.45 88.2651 C 1277.51 94.6801 1290.03 100.802 1301.58 108.066 C 1310.51 113.677 1318.62 120.601 1327.29 126.6 C 1338.02 134.029 1348.93 140.806 1359.14 148.985 C 1373.09 160.15 1385.76 172.624 1399.33 184.193 C 1415.05 197.601 1431.54 209.881 1446.11 224.624 C 1516.12 295.461 1582.94 405.561 1613.23 500.062 C 1630.09 552.705 1642.38 609.329 1649.15 664.166 C 1650.58 675.749 1650.72 687.479 1652 699.087 L 1652 747.492 C 1641.71 847.832 1621.12 930.462 1575.25 1021.08 C 1564.6 1042.12 1553.18 1063.45 1540.51 1083.35 C 1528.68 1101.93 1515.54 1119.76 1503.01 1137.87 C 1486.2 1162.16 1469.09 1187.57 1451.62 1211.33 C 1431.55 1238.65 1410.41 1265.35 1390.1 1292.53 L 1158.33 1604.22 L 1048.37 1756.25 C 1041.59 1765.55 1034.89 1775.63 1027.91 1784.71 C 1009.19 1809.06 980.983 1860.99 947.668 1864 L 917.811 1864 C 877.421 1845.11 869.094 1819.62 843.582 1786.77 L 724.408 1633.21 L 521.157 1364.33 C 487.936 1321.47 455.087 1278.33 422.614 1234.91 C 408.846 1216.26 396.738 1197.09 381.48 1179.26 C 374.647 1171.28 368.919 1159.38 362.561 1150.72 C 354.166 1139.29 345.534 1127.93 337.615 1116.17 C 307.016 1068.22 272.257 1011.28 253.292 957.682 C 226.323 883.396 212.445 804.994 212.275 725.964 C 212.223 705.458 212.317 684.852 212.942 664.357 C 213.166 657.001 215.397 646.977 214.186 640.028 C 214.144 639.785 213.763 638.335 213.412 638.031 C 199.949 626.365 93.7567 654.649 37.9579 601.156 C 14.4376 578.608 3.01858 551.479 2.44515 519.032 C 1.9674 491.999 14.4344 457.408 33.5575 437.872 C 47.0489 424.09 64.7478 413.037 83.2782 407.57 C 116.835 397.671 154.241 400.73 188.81 400.838 L 286.511 400.948 z M 1075.11 871.401 C 1068.64 862.769 1066.01 860.717 1055.13 857.447 C 1045.51 839.819 1022.61 823.737 1020.99 804.642 C 1020.81 802.619 1038.8 778.531 1041.51 774.262 C 1061.31 743.237 1064.45 702.716 1051.32 668.518 C 1048.11 660.242 1042.41 653.27 1038.05 645.736 C 1011.03 599.055 944.932 581.158 895.449 596.766 C 897.53 596.11 856.138 617.765 858.207 615.836 C 843.214 629.812 831.198 640.517 826.858 660.948 C 799.154 689.674 803.86 748.673 820.943 781.988 C 835.213 809.82 856.027 834.628 875.388 858.852 L 958.345 961.301 C 999.084 1011.98 1036.87 1064.39 1080.51 1112.77 C 1083.88 1116.5 1093.67 1118.69 1096.73 1113.77 C 1158.14 1015.1 1247.71 939.168 1289.2 827.822 C 1310.53 770.585 1314.87 729.141 1306.98 668.624 C 1295.43 586.078 1256.87 509.681 1197.32 451.36 C 1134.52 390.249 1052.07 347.671 964.189 341.441 C 952.409 340.606 940.388 338.144 928.452 338.26 C 907.888 339.86 878.409 341.142 858.254 344.851 C 826.026 352.173 793.913 363.237 763.648 376.513 C 759.794 378.203 751.825 388.697 749.206 389.074 C 726.979 392.184 718.014 410.8 699.891 420.337 C 689.919 425.494 682.444 434.995 674.194 442.832 C 575.225 536.842 531.714 693.601 568.626 825.071 C 573.41 842.114 583.177 862.959 590.284 879.066 C 606.572 915.979 628.971 948.13 653.402 979.988 C 714.984 1063.82 781.756 1144.51 846.865 1225.81 C 926.242 1325.78 1004.71 1426.45 1082.28 1527.83 L 1102.04 1528.46 C 1105.18 1522.19 1118.31 1505.93 1123.77 1502.14 C 1126.6 1500.17 1142.88 1476.94 1146.09 1472.6 L 1210.52 1385 L 1385.99 1146.88 C 1396.73 1132.36 1407.57 1117.92 1418.52 1103.55 C 1423.41 1097.09 1432.48 1085.75 1436.3 1079.13 C 1439.53 1070.18 1465.09 1036.92 1471.02 1025.48 C 1475.84 1016.17 1481.81 1004.94 1486.85 995.493 C 1491.12 987.152 1498.23 978.475 1501.75 969.861 C 1509.6 950.618 1517.16 931.282 1525.39 912.178 C 1532.54 895.562 1536.48 875.713 1541.97 858.465 C 1545.5 847.399 1548.49 835.327 1551.38 824.051 C 1554.11 806.151 1558.42 783.815 1559.93 765.933 C 1561.07 752.354 1560.24 732.747 1560.37 718.467 C 1560.54 701.715 1560.56 683.147 1559.56 666.542 C 1559 657.13 1556.48 643.316 1555.01 633.763 C 1552.71 618.762 1550.37 602.258 1546.88 587.515 C 1544.23 576.349 1539.64 563.716 1536.29 552.579 C 1526.45 519.895 1516.07 492.523 1501.38 461.774 C 1489.98 437.927 1478.15 413.561 1464.16 390.896 C 1457.9 380.774 1447.99 368.575 1441.04 358.552 C 1436.71 352.314 1427.89 343.849 1423.66 337.529 C 1408.9 315.471 1391.24 296.366 1373.96 276.29 C 1372.04 274.048 1359.05 263.481 1355.75 260.571 C 1332.35 239.913 1300.97 213.479 1275.08 196.865 C 1203.66 151.037 1124.43 117.488 1041.08 100.959 C 1024.4 97.652 998.555 93.6777 981.907 92.5053 C 962.577 91.144 939.134 92.4838 919.352 92.0212 C 907.422 91.7422 892.068 91.9861 880.096 92.964 C 875.476 93.3414 863.699 98.6776 857.739 99.3865 C 852.805 100.412 844.207 96.5195 839.668 97.8503 C 826.007 101.855 811.775 103.185 798.078 106.145 C 754.861 115.482 711.732 128.609 673.046 150.376 C 668.286 153.054 662.679 154.827 657.869 157.492 C 654.684 159.311 654.525 161.588 649.218 164.393 C 621.157 179.226 596.834 195.238 570.672 213.088 C 559.171 210.513 564.046 217.265 551.166 217.623 C 530.701 232.702 516.144 248.139 498.004 265.671 C 417.154 343.814 354.946 443.148 325.234 552.189 C 357.808 551.451 390.393 551.299 422.973 551.734 C 446.549 551.873 473.674 551.561 496.902 553.701 C 503.263 537.362 506.14 524.872 513.892 508.539 C 519.233 497.284 529.436 482.31 533.663 472.156 L 534.451 471.156 C 543.652 459.351 551.149 444.901 561.619 432.171 C 644.296 331.641 742.613 268.546 873.772 252.556 C 991.492 238.205 1120.67 271.132 1214.62 343.71 C 1240.88 364.324 1264.99 387.532 1286.6 412.98 C 1348.95 485.076 1384.68 560.286 1398.01 655.522 C 1401.08 677.497 1400.34 699.11 1401.15 721.105 C 1407.54 894.522 1284.65 1012.24 1188.09 1141.82 L 1146.27 1197.3 C 1133.3 1214.58 1115.92 1244.68 1092.97 1247.7 C 1085.34 1248.71 1075.02 1248.01 1069.32 1242.47 C 1041.23 1218.64 1019.25 1185.95 996.454 1157.16 C 973.419 1127.83 950.165 1098.68 926.692 1069.7 C 914.144 1054.29 900.26 1038.7 888.206 1023.17 L 823.146 939.688 C 815.139 929.612 801.594 911.396 793.385 903.116 C 780.389 895.885 756.112 857.51 745.89 844.57 C 738.273 834.927 723.878 804.898 720.498 793.093 C 706.922 744.032 708.166 692.051 724.073 643.695 C 744.3 581.136 807.128 523.824 870.581 506.213 C 930.517 489.306 994.74 497.313 1048.69 528.419 C 1084.02 548.893 1110.33 571.223 1130.24 607.54 C 1137.7 621.159 1141.01 626.171 1145.57 641.366 C 1153.49 667.738 1156.27 685.748 1156.5 713.491 C 1156.79 748.547 1152.82 780.747 1133.9 811.33 C 1122.69 829.93 1110.04 848.319 1096.94 865.692 C 1090.73 873.932 1083.66 873.677 1075.11 871.401 z M 307.233 636.36 C 305.677 636.6 303.461 636.559 302.898 637.666 C 299.083 645.164 300.399 661.74 300.019 670.45 C 299.416 684.241 298.122 698.347 297.967 711.748 C 296.883 764.224 302.685 816.616 315.225 867.584 C 327.831 920.102 360.983 998.547 390.972 1043.7 C 444.096 1123.7 507.309 1204.13 565.049 1280.79 L 677.626 1431.22 C 688.815 1445.92 700.705 1460.09 711.815 1474.92 L 881.083 1697.7 C 894.017 1714.45 921.914 1755.6 934.779 1766.89 C 947.846 1749.12 966.106 1724.59 978.367 1706.58 C 1000.7 1676.44 1021.25 1648.49 1040.89 1616.42 C 1003.03 1572.87 967.12 1523.79 930.964 1478.65 C 901.219 1441.52 871.153 1404.64 841.403 1367.43 L 694.292 1181.01 L 616.145 1081.13 C 571.366 1023.68 521.17 960.863 493.829 893.154 C 465.097 822.002 460.126 744.884 465.859 669.013 C 466.588 659.375 468.03 645.202 468.042 636.048 L 370.82 636.552 C 351.488 636.465 325.944 635.525 307.233 636.36 z M 253.264 485.279 C 238.746 483.475 222.39 483.377 207.72 483.713 C 182.478 484.291 156.083 482.939 130.972 484.418 C 122.716 484.874 119.55 484.767 112.255 489.042 C 90.584 501.744 86.5935 525.816 107.63 542.008 C 118.538 550.403 130.024 553.83 143.726 554.342 C 167.871 555.244 192.086 554.389 216.25 554.283 L 233.813 553.986 C 237.01 520.456 240.323 514.89 253.264 485.279 z"/>
<path transform="translate(0,0)" fill="rgba(0, 0, 0, 1)" d="M 307.233 636.36 C 325.944 635.525 351.488 636.465 370.82 636.552 L 468.042 636.048 C 468.03 645.202 466.588 659.375 465.859 669.013 C 460.126 744.884 465.097 822.002 493.829 893.154 C 521.17 960.863 571.366 1023.68 616.145 1081.13 L 694.292 1181.01 L 841.403 1367.43 C 871.153 1404.64 901.219 1441.52 930.964 1478.65 C 967.12 1523.79 1003.03 1572.87 1040.89 1616.42 C 1021.25 1648.49 1000.7 1676.44 978.367 1706.58 C 966.106 1724.59 947.846 1749.12 934.779 1766.89 C 921.914 1755.6 894.017 1714.45 881.083 1697.7 L 711.815 1474.92 C 700.705 1460.09 688.815 1445.92 677.626 1431.22 L 565.049 1280.79 C 507.309 1204.13 444.096 1123.7 390.972 1043.7 C 360.983 998.547 327.831 920.102 315.225 867.584 C 302.685 816.616 296.883 764.224 297.967 711.748 C 298.122 698.347 299.416 684.241 300.019 670.45 C 300.399 661.74 299.083 645.164 302.898 637.666 C 303.461 636.559 305.677 636.6 307.233 636.36 z M 308.222 653.3 C 308.179 659.949 308.821 684.965 307.439 689.088 C 301.725 706.142 299.317 702.63 301.621 723.643 C 309.608 733.094 308.631 742.423 308.167 754.447 C 307.721 766.028 302.983 777.762 304.139 789.535 C 308.386 832.82 320.118 878.741 334.387 919.786 C 340.418 937.136 354.933 949.495 358.604 968.373 C 363.347 976.542 369.664 987.773 374.09 995.676 C 388.4 1021.23 401.261 1047 418.237 1070.86 C 427.235 1083.51 434.332 1093.28 438.751 1107.9 C 439.474 1110.29 454.452 1121.14 456.131 1124.52 C 463.635 1139.33 469.768 1151.86 480.382 1165.07 C 487.491 1173.92 498.498 1179.81 504.924 1189.12 C 515.976 1205.13 530.226 1220.74 536.714 1239.14 C 536.896 1239.65 552.681 1253.05 555.009 1255.42 C 555.545 1258.58 556.211 1263.78 557.889 1266.49 C 563.26 1275.17 576.872 1282.31 582.436 1290 C 592.78 1304.3 602.096 1317.66 613.706 1331.14 C 623.272 1342.25 631.866 1355.54 641.233 1366.94 C 647.505 1375.16 653.29 1383.87 659.732 1391.95 C 671.851 1407.18 684.961 1421.61 696.984 1436.91 C 704.274 1446.19 708.861 1459.45 715.797 1468.91 C 723.848 1479.51 731.224 1490.57 738.719 1501.57 C 740.576 1504.3 753.834 1517.9 754.137 1519.01 C 758.05 1533.22 768.444 1538.88 777.478 1549.85 C 780.141 1553.71 780.209 1557.52 782.917 1561.6 C 786.627 1567.19 796.149 1574.6 799.305 1579.89 C 808.81 1595.82 825.011 1610.12 835.385 1624.02 C 855.918 1651.52 875.506 1679.46 896.18 1706.86 C 901.348 1713.98 907.87 1720.33 912.678 1727.77 C 915.322 1732.01 916.362 1733.02 917.676 1738.06 C 924.036 1742.12 927.669 1744.97 935.726 1743.3 C 948.961 1740.58 958.64 1721.72 965.488 1710.81 C 989.043 1684.98 1007.08 1652.15 1027.79 1623.3 C 1028.14 1617.01 1029.28 1601.82 1024.63 1599.54 C 1005.51 1590.14 1007.8 1589.31 1000.43 1571.24 C 991.471 1561.8 980.708 1555.45 972.613 1545.04 C 967.287 1538.2 962.283 1531.34 957.251 1525.46 C 933.908 1498.19 912.752 1469.93 891.334 1441.23 C 876.576 1421.46 857.541 1403.19 843.211 1382.67 C 836.039 1372.97 836.606 1364.72 831.483 1358.44 L 778.507 1293.14 C 767.323 1279.08 756.101 1264.92 744.933 1250.82 C 741.032 1245.89 733.139 1242.16 729.089 1237.85 C 720.19 1228.38 711.408 1217.4 703.206 1207.28 C 696.671 1199.22 691.119 1188.16 684.683 1179.83 C 678.483 1171.81 670.479 1164.32 664.352 1156.35 C 661.412 1152.52 659.549 1142.5 656.21 1138.4 C 653.013 1134.48 645.106 1129.9 642.052 1126.31 C 635.778 1118.97 630.391 1110.88 624.448 1103.27 C 619.147 1096.48 612.691 1090.46 607.338 1083.77 C 602.62 1077.87 598.363 1071.28 593.887 1065.17 C 590.032 1059.71 586.02 1054.33 582.413 1048.71 C 581.158 1047.12 578.342 1037 577.362 1036.2 C 567.081 1027.8 563.926 1015.55 556.778 1005.82 C 531.168 970.958 509.194 935.252 491.726 895.643 C 488.021 887.241 482.541 879.127 479.446 870.398 C 476.118 862.137 477.282 854.484 474.74 845.447 C 471.276 833.132 461.996 814.627 461.383 802.504 C 461.036 795.633 464.45 784.999 464.256 776.561 C 463.965 763.963 461.219 751.626 460.553 739.545 C 459.809 726.032 460.419 710.399 460.467 696.773 C 460.516 683.016 464.6 666.546 464.697 652.92 C 459.343 651.293 444.54 645.673 440.297 645.134 C 426.727 643.411 408.006 643.783 393.941 644.01 C 375.108 644.314 354.605 643.604 336 644.344 C 325.639 645.969 317.857 649.361 308.222 653.3 z"/>
<path transform="translate(0,0)" fill="rgba(0, 0, 0, 1)" d="M 1089.24 1549.05 C 1075.98 1517.46 1023.92 1458.78 1000.63 1428.16 C 948.24 1359.16 894.961 1290.83 840.808 1223.21 C 829.146 1208.51 814.723 1192.88 803.944 1177.96 C 724.607 1068.18 612.051 961.147 567.059 831.647 C 535.603 741.108 555.806 624.026 598.664 540.689 C 643.59 453.332 723.785 379.947 819.285 352.394 C 1017.82 288.97 1233.92 411.404 1296.31 607.514 C 1337.17 735.934 1302.13 842.205 1225.06 948.144 C 1182.42 1006.76 1121.97 1068.96 1088.51 1133.12 C 1073.38 1102.78 1046.98 1079.51 1026.21 1052.92 C 998.709 1017.72 971.597 982.989 943.444 948.269 L 878.107 868.079 C 855.978 840.488 831.879 809.33 815.454 777.804 C 807.024 760.44 804.134 741.657 803.952 722.6 C 803.317 701.04 808.69 683.779 817.385 664.684 C 840.055 614.898 880.152 587.344 935.357 588.703 C 973.068 589.631 998.624 597.848 1026.32 625.735 C 1051.14 650.72 1062.56 681.011 1062.72 716.073 C 1062.46 743.62 1049.66 767.051 1034.5 789.133 C 1030.47 795.018 1026.14 802.189 1020.84 806.936 C 1031.02 825.17 1067.56 864.009 1084.38 872.74 C 1107.35 854.078 1140.88 801.838 1147.61 772.677 C 1160.48 717.156 1155.06 657.616 1126.53 607.753 C 1066.91 503.528 922.663 470.418 820.243 531.218 C 770.159 561.176 734.07 609.849 719.956 666.477 C 714.753 687.455 714.714 701.621 713.896 721.998 C 711.357 785.221 737.505 835.478 777.028 882.733 C 781.443 888.011 790.191 897.383 793.385 903.116 C 780.389 895.885 756.112 857.51 745.89 844.57 C 738.273 834.927 723.878 804.898 720.498 793.093 C 706.922 744.032 708.166 692.051 724.073 643.695 C 744.3 581.136 807.128 523.824 870.581 506.213 C 930.517 489.306 994.74 497.313 1048.69 528.419 C 1084.02 548.893 1110.33 571.223 1130.24 607.54 C 1137.7 621.159 1141.01 626.171 1145.57 641.366 C 1153.49 667.738 1156.27 685.748 1156.5 713.491 C 1156.79 748.547 1152.82 780.747 1133.9 811.33 C 1122.69 829.93 1110.04 848.319 1096.94 865.692 C 1090.73 873.932 1083.66 873.677 1075.11 871.401 C 1068.64 862.769 1066.01 860.717 1055.13 857.447 C 1045.51 839.819 1022.61 823.737 1020.99 804.642 C 1020.81 802.619 1038.8 778.531 1041.51 774.262 C 1061.31 743.237 1064.45 702.716 1051.32 668.518 C 1048.11 660.242 1042.41 653.27 1038.05 645.736 C 1011.03 599.055 944.932 581.158 895.449 596.766 C 897.53 596.11 856.138 617.765 858.207 615.836 C 843.214 629.812 831.198 640.517 826.858 660.948 C 799.154 689.674 803.86 748.673 820.943 781.988 C 835.213 809.82 856.027 834.628 875.388 858.852 L 958.345 961.301 C 999.084 1011.98 1036.87 1064.39 1080.51 1112.77 C 1083.88 1116.5 1093.67 1118.69 1096.73 1113.77 C 1158.14 1015.1 1247.71 939.168 1289.2 827.822 C 1310.53 770.585 1314.87 729.141 1306.98 668.624 C 1295.43 586.078 1256.87 509.681 1197.32 451.36 C 1134.52 390.249 1052.07 347.671 964.189 341.441 C 952.409 340.606 940.388 338.144 928.452 338.26 C 907.888 339.86 878.409 341.142 858.254 344.851 C 826.026 352.173 793.913 363.237 763.648 376.513 C 759.794 378.203 751.825 388.697 749.206 389.074 C 726.979 392.184 718.014 410.8 699.891 420.337 C 689.919 425.494 682.444 434.995 674.194 442.832 C 575.225 536.842 531.714 693.601 568.626 825.071 C 573.41 842.114 583.177 862.959 590.284 879.066 C 606.572 915.979 628.971 948.13 653.402 979.988 C 714.984 1063.82 781.756 1144.51 846.865 1225.81 C 926.242 1325.78 1004.71 1426.45 1082.28 1527.83 L 1102.04 1528.46 C 1105.18 1522.19 1118.31 1505.93 1123.77 1502.14 C 1120.11 1509.19 1095.35 1543.65 1089.24 1549.05 z"/>
<path transform="translate(0,0)" fill="rgba(0, 0, 0, 1)" d="M 130.972 484.418 C 156.083 482.939 182.478 484.291 207.72 483.713 C 222.39 483.377 238.746 483.475 253.264 485.279 C 240.323 514.89 237.01 520.456 233.813 553.986 L 216.25 554.283 C 192.086 554.389 167.871 555.244 143.726 554.342 C 130.024 553.83 118.538 550.403 107.63 542.008 C 86.5935 525.816 90.584 501.744 112.255 489.042 C 119.55 484.767 122.716 484.874 130.972 484.418 z M 118.326 493.643 C 112.794 500.002 97.2079 510.739 97.9419 516.267 C 98.8261 522.927 124.885 547.538 130.256 550.272 C 132.027 550.921 136.764 552.081 138.531 551.929 C 149.919 550.951 226.731 554.169 231.567 551.782 C 233.155 541.172 223.348 525.879 231.758 516.811 C 233.905 514.496 237.582 516.105 239.795 510.148 C 239.319 504.505 235.318 498.341 232.325 493.522 C 223.916 488.881 223.127 487.191 214.068 488.262 C 204.565 494.996 138.401 490.659 118.326 493.643 z"/>
<path transform="translate(0,0)" fill="rgba(0, 0, 0, 1)" d="M 551.166 217.623 C 669.818 126.293 844.497 71.1626 994.169 90.4558 C 1164.74 111.384 1320.12 198.878 1426.46 333.873 C 1475.47 396.734 1512.82 467.868 1536.73 543.902 C 1555.89 603.461 1565.25 659.535 1562.98 722.436 C 1562.47 744.268 1563.11 768.989 1559.79 790.468 C 1551.05 846.919 1532.14 911.028 1507.7 962.879 C 1496.7 986.236 1453.67 1062.99 1436.3 1079.13 C 1439.53 1070.18 1465.09 1036.92 1471.02 1025.48 C 1475.84 1016.17 1481.81 1004.94 1486.85 995.493 C 1491.12 987.152 1498.23 978.475 1501.75 969.861 C 1509.6 950.618 1517.16 931.282 1525.39 912.178 C 1532.54 895.562 1536.48 875.713 1541.97 858.465 C 1545.5 847.399 1548.49 835.327 1551.38 824.051 C 1554.11 806.151 1558.42 783.815 1559.93 765.933 C 1561.07 752.354 1560.24 732.747 1560.37 718.467 C 1560.54 701.715 1560.56 683.147 1559.56 666.542 C 1559 657.13 1556.48 643.316 1555.01 633.763 C 1552.71 618.762 1550.37 602.258 1546.88 587.515 C 1544.23 576.349 1539.64 563.716 1536.29 552.579 C 1526.45 519.895 1516.07 492.523 1501.38 461.774 C 1489.98 437.927 1478.15 413.561 1464.16 390.896 C 1457.9 380.774 1447.99 368.575 1441.04 358.552 C 1436.71 352.314 1427.89 343.849 1423.66 337.529 C 1408.9 315.471 1391.24 296.366 1373.96 276.29 C 1372.04 274.048 1359.05 263.481 1355.75 260.571 C 1332.35 239.913 1300.97 213.479 1275.08 196.865 C 1203.66 151.037 1124.43 117.488 1041.08 100.959 C 1024.4 97.652 998.555 93.6777 981.907 92.5053 C 962.577 91.144 939.134 92.4838 919.352 92.0212 C 907.422 91.7422 892.068 91.9861 880.096 92.964 C 875.476 93.3414 863.699 98.6776 857.739 99.3865 C 852.805 100.412 844.207 96.5195 839.668 97.8503 C 826.007 101.855 811.775 103.185 798.078 106.145 C 754.861 115.482 711.732 128.609 673.046 150.376 C 668.286 153.054 662.679 154.827 657.869 157.492 C 654.684 159.311 654.525 161.588 649.218 164.393 C 621.157 179.226 596.834 195.238 570.672 213.088 C 559.171 210.513 564.046 217.265 551.166 217.623 z"/>
<path transform="translate(0,0)" fill="rgba(0, 0, 0, 1)" fill-opacity="0.988235" d="M 551.166 217.623 C 564.046 217.265 559.171 210.513 570.672 213.088 C 553.039 223.203 552.61 232.923 529.942 236.842 C 518.687 247.273 507.332 258.722 496.608 269.771 C 494.204 272.248 491.434 278.403 489.37 280.325 C 478.242 290.69 467.355 302.108 456.813 313.09 C 454.446 315.557 452.018 326.734 449.676 329.956 C 444.613 336.924 437.328 342.763 432.077 349.377 C 429.831 352.207 429.028 357.525 426.078 361.291 C 413.889 376.857 402.406 392.796 391.825 409.505 C 389.099 413.808 388.954 421.061 386.191 425.628 C 384.17 428.97 377.738 434.701 376.128 437.627 C 372.552 444.126 370.24 452.388 366.895 459.137 C 365.242 462.473 356.664 470.432 355.516 473.031 C 348.007 490.033 332.885 525.873 332.178 543.621 C 332.128 544.948 332.109 546.276 332.123 547.605 C 343.288 548.567 355.416 548.433 366.67 548.3 C 407.776 547.815 449.204 548.921 490.28 548.039 L 495.74 540.558 C 500.932 533.299 504.122 522.229 508.474 514.271 C 516.509 499.582 521.132 483.798 533.663 472.156 C 529.436 482.31 519.233 497.284 513.892 508.539 C 506.14 524.872 503.263 537.362 496.902 553.701 C 473.674 551.561 446.549 551.873 422.973 551.734 C 390.393 551.299 357.808 551.451 325.234 552.189 C 354.946 443.148 417.154 343.814 498.004 265.671 C 516.144 248.139 530.701 232.702 551.166 217.623 z"/>
</g></svg></svg></svg>