<svg width="1024" height="1024" viewBox="0 0 1024 1024" fill="none" xmlns="http://www.w3.org/2000/svg">
  <rect x="64" y="64" width="896" height="896" rx="220" fill="#0F1E35"/>
  <path d="M276 750V274H398L616 584V274H748V750H626L408 440V750H276Z" fill="#F3F7FF"/>
  <path d="M700 324C659 279 605 256 536 256C429 256 352 319 352 413C352 500 420 553 521 582L569 596C610 607 630 624 630 651C630 685 596 707 544 707C486 707 436 683 398 638L318 721C375 787 452 820 547 820C671 820 765 752 765 646C765 556 703 501 589 470L541 456C492 444 467 426 467 399C467 367 498 347 546 347C592 347 632 364 665 398L700 324Z" fill="#FF7A00"/>
</svg>
