<svg width="1024" height="1024" viewBox="0 0 1024 1024" fill="none" xmlns="http://www.w3.org/2000/svg">
  <rect x="64" y="64" width="896" height="896" rx="220" fill="#0C2748"/>
  <path d="M296 286H728M296 396H728M296 506H728M296 616H728M296 726H728" stroke="#2E4E77" stroke-width="18" stroke-linecap="round"/>
  <path d="M296 286V726M406 286V726M516 286V726M626 286V726M736 286V726" stroke="#2E4E77" stroke-width="18" stroke-linecap="round"/>
  <path d="M512 272C404.857 272 318 358.857 318 466C318 609.318 512 742 512 742C512 742 706 609.318 706 466C706 358.857 619.143 272 512 272Z" fill="#FF7A00"/>
  <circle cx="512" cy="466" r="78" fill="#FFFFFF"/>
  <circle cx="512" cy="466" r="34" fill="#0C2748"/>
</svg>
